<svg xmlns="http://www.w3.org/2000/svg" width="40" height="41" viewBox="0 0 40 41" fill="none"><g clip-path="url(#clip0_105_2)"><path fill="url(#paint0_linear_105_2)" d="M39.987 10.103c.014-.46-.18-.9-.51-1.2l-8.887-8.887c-.3-.32-.74-.51-1.2-.51H10.103c-.46 0-.9.18-1.2.51L.013 8.89c-.32.3-.51.74-.51 1.2v20.298c0 .46.18.9.51 1.2l8.886 8.886c.3.32.74.51 1.2.51h20.298c.46 0 .9-.18 1.2-.51l8.887-8.886c.32-.3.51-.74.51-1.2V10.103z"></path><path fill="url(#paint1_linear_105_2)" d="M29.97 13.052c.014-.46-.18-.9-.51-1.2L20.573 2.965c-.3-.32-.74-.51-1.2-.51H9.087c-.46 0-.9.18-1.2.51L-8.887 11.852c-.32.3-.51.74-.51 1.2v16.44c0 .46.18.9.51 1.2l8.886 8.886c.3.32.74.51 1.2.51h11.286c.46 0 .9-.18 1.2-.51l8.887-8.886c.32-.3.51-.74.51-1.2V13.052z"></path></g><defs><linearGradient id="paint0_linear_105_2" x1="18.999" x2="38.789" y1="41" y2="1.666" gradientUnits="userSpaceOnUse"><stop stop-color="#41D1FF"></stop><stop offset="1" stop-color="#BD34FE"></stop></linearGradient><linearGradient id="paint1_linear_105_2" x1="8.999" x2="28.79" y1="40.404" y2="1.07" gradientUnits="userSpaceOnUse"><stop stop-color="#FFEA83"></stop><stop offset=".083" stop-color="#FFDD35"></stop><stop offset="1" stop-color="#FFA800"></stop></linearGradient><clipPath id="clip0_105_2"><path fill="#fff" d="M0 0h40v40H0z" transform="translate(0 .5)"></path></clipPath></defs></svg> 